<mxfile host="app.diagrams.net" agent="Mozilla/5.0 (Windows NT 10.0; Win64; x64) AppleWebKit/537.36 (KHTML, like Gecko) Chrome/134.0.0.0 Safari/537.36 Edg/134.0.0.0" version="26.1.2">
  <diagram name="Page-1" id="sC7TlFeQocKCVJpmJjbw">
    <mxGraphModel dx="1042" dy="531" grid="1" gridSize="10" guides="1" tooltips="1" connect="1" arrows="1" fold="1" page="1" pageScale="1" pageWidth="850" pageHeight="1100" math="0" shadow="0">
      <root>
        <mxCell id="0" />
        <mxCell id="1" parent="0" />
        <mxCell id="e8w4IlwRmWe2HFXXbtW--45" value="&lt;span style=&quot;white-space: pre;&quot;&gt;&#x9;&lt;/span&gt;AWS EC2" style="rounded=0;whiteSpace=wrap;html=1;align=left;verticalAlign=top;" vertex="1" parent="1">
          <mxGeometry x="480" y="240" width="340" height="190" as="geometry" />
        </mxCell>
        <mxCell id="e8w4IlwRmWe2HFXXbtW--2" value="&lt;span style=&quot;white-space: pre;&quot;&gt;&#x9;&lt;/span&gt;BTP" style="rounded=0;whiteSpace=wrap;html=1;align=left;verticalAlign=top;" vertex="1" parent="1">
          <mxGeometry x="170" y="240" width="240" height="150" as="geometry" />
        </mxCell>
        <mxCell id="e8w4IlwRmWe2HFXXbtW--5" value="&lt;span style=&quot;white-space: pre;&quot;&gt;&#x9;&lt;/span&gt;Datasphere" style="rounded=0;whiteSpace=wrap;html=1;dashed=1;dashPattern=8 8;verticalAlign=top;align=left;" vertex="1" parent="1">
          <mxGeometry x="190" y="280" width="170" height="90" as="geometry" />
        </mxCell>
        <mxCell id="e8w4IlwRmWe2HFXXbtW--1" value="" style="shape=mxgraph.sap.icon;labelPosition=center;verticalLabelPosition=bottom;align=center;verticalAlign=top;strokeWidth=1;strokeColor=#D5DADD;fillColor=#EDEFF0;gradientColor=#FCFCFC;gradientDirection=west;aspect=fixed;SAPIcon=SAP_Datasphere" vertex="1" parent="1">
          <mxGeometry x="160" y="260" width="50" height="50" as="geometry" />
        </mxCell>
        <mxCell id="e8w4IlwRmWe2HFXXbtW--3" value="" style="shape=mxgraph.sap.icon;labelPosition=center;verticalLabelPosition=bottom;align=center;verticalAlign=top;strokeWidth=1;strokeColor=#D5DADD;fillColor=#EDEFF0;gradientColor=#FCFCFC;gradientDirection=west;aspect=fixed;SAPIcon=SAP_BTP,_Cloud_Foundry_runtime" vertex="1" parent="1">
          <mxGeometry x="140" y="220" width="50" height="50" as="geometry" />
        </mxCell>
        <mxCell id="e8w4IlwRmWe2HFXXbtW--6" style="edgeStyle=orthogonalEdgeStyle;rounded=0;orthogonalLoop=1;jettySize=auto;html=1;exitX=1;exitY=1;exitDx=0;exitDy=0;entryX=1;entryY=0.75;entryDx=0;entryDy=0;" edge="1" parent="1" source="e8w4IlwRmWe2HFXXbtW--5" target="e8w4IlwRmWe2HFXXbtW--5">
          <mxGeometry relative="1" as="geometry" />
        </mxCell>
        <mxCell id="e8w4IlwRmWe2HFXXbtW--7" style="edgeStyle=orthogonalEdgeStyle;rounded=0;orthogonalLoop=1;jettySize=auto;html=1;exitX=0.5;exitY=1;exitDx=0;exitDy=0;" edge="1" parent="1" source="e8w4IlwRmWe2HFXXbtW--5" target="e8w4IlwRmWe2HFXXbtW--5">
          <mxGeometry relative="1" as="geometry" />
        </mxCell>
        <mxCell id="e8w4IlwRmWe2HFXXbtW--10" value="" style="edgeStyle=orthogonalEdgeStyle;rounded=0;orthogonalLoop=1;jettySize=auto;html=1;" edge="1" parent="1" source="e8w4IlwRmWe2HFXXbtW--8" target="e8w4IlwRmWe2HFXXbtW--9">
          <mxGeometry relative="1" as="geometry" />
        </mxCell>
        <mxCell id="e8w4IlwRmWe2HFXXbtW--8" value="Local Table" style="shape=image;verticalLabelPosition=bottom;verticalAlign=top;imageAspect=0;aspect=fixed;image=data:image/svg+xml,PHN2ZyB4bWxucz0iaHR0cDovL3d3dy53My5vcmcvMjAwMC9zdmciIGlkPSJidXNpbmVzc3J1bGVzIiB2aWV3Qm94PSI0LjAwMDAwMTkwNzM0ODYzMyAzLjk5OTk5OTA0NjMyNTY4MzYgNDggNDcuOTk5OTk2MTg1MzAyNzM0IiB3aWR0aD0iNDgiIGhlaWdodD0iNDcuOTk5OTk2MTg1MzAyNzM0Ij48ZGVmcz48c3R5bGU+LmNscy0xe2ZpbGw6IzA3NGQ5Mjt9LmNscy0ye2ZpbGw6IzBhNmVkMTt9LmNscy0ze2ZpbGw6IzA1M2I3MDt9PC9zdHlsZT48L2RlZnM+PHRpdGxlPmJ1c2luZXNzcnVsZXNfY2lyY2xlPC90aXRsZT48cGF0aCBjbGFzcz0iY2xzLTEiIGQ9Ik0yOCw2QTIyLDIyLDAsMSwxLDYsMjgsMjIuMDI1LDIyLjAyNSwwLDAsMSwyOCw2bTAtMkEyNCwyNCwwLDEsMCw1MiwyOCwyNCwyNCwwLDAsMCwyOCw0WiIvPjxwYXRoIGNsYXNzPSJjbHMtMiIgZD0iTTM4LjMzMywxOC44MzNIMjBBMS42MDUsMS42MDUsMCwwLDAsMTguMzMzLDIwLjVWMzguODMzQTEuNjA1LDEuNjA1LDAsMCwwLDIwLDQwLjVIMzguMzMzYTEuNjQ2LDEuNjQ2LDAsMCwwLDEuMTcyLS40NjksMS41NzksMS41NzksMCwwLDAsLjQ5NS0xLjJWMjAuNWExLjU4MiwxLjU4MiwwLDAsMC0uNDk1LTEuMkExLjY1LDEuNjUsMCwwLDAsMzguMzMzLDE4LjgzM1pNMjAsMjAuNWg1djVIMjBabTAsNi42NjdoNXY1SDIwWm0wLDExLjY2NnYtNWg1djVaTTMxLjY2NywyMC41djVoLTV2LTVabTAsNi42Njd2NWgtNXYtNVptLTUsMTEuNjY2di01aDV2NVpNMzguMzMzLDI1LjVoLTV2LTVoNVptMCw2LjY2N2gtNXYtNWg1Wm0wLDYuNjY2aC01di01aDVaIi8+PHBhdGggY2xhc3M9ImNscy0zIiBkPSJNMTUuODMzLDIwLjVhLjg0MS44NDEsMCwwLDAtLjU3My4yMzQuNzcxLjc3MSwwLDAsMC0uMjYuNnYzLjMzNGEuNzY5Ljc2OSwwLDAsMCwuMjYuNi44NDEuODQxLDAsMCwwLC41NzMuMjM0LjczNy43MzcsMCwwLDAsLjgzNC0uODMzVjIxLjMzM0EuNzM3LjczNywwLDAsMCwxNS44MzMsMjAuNVoiLz48cGF0aCBjbGFzcz0iY2xzLTMiIGQ9Ik0xNS44MzMsMjcuMTY3YS44NDEuODQxLDAsMCwwLS41NzMuMjM0QS43NjguNzY4LDAsMCwwLDE1LDI4djMuMzMzYS43NjguNzY4LDAsMCwwLC4yNi42LjgzNy44MzcsMCwwLDAsLjU3My4yMzUuNzM4LjczOCwwLDAsMCwuODM0LS44MzRWMjhBLjczNy43MzcsMCwwLDAsMTUuODMzLDI3LjE2N1oiLz48cGF0aCBjbGFzcz0iY2xzLTMiIGQ9Ik0xNS44MzMsMzMuODg1YS44NDIuODQyLDAsMCwwLS41NzMuMjM1Ljc2OC43NjgsMCwwLDAtLjI2LjZ2My4zMzNhLjc2OC43NjgsMCwwLDAsLjI2LjYuODQxLjg0MSwwLDAsMCwuNTczLjIzNC43MzcuNzM3LDAsMCwwLC44MzQtLjgzM1YzNC43MTlBLjczOC43MzgsMCwwLDAsMTUuODMzLDMzLjg4NVoiLz48cGF0aCBjbGFzcz0iY2xzLTMiIGQ9Ik0yNC4xMTUsMTUuNUgyMC43ODFhLjczNi43MzYsMCwwLDAtLjgzMy44MzMuODM3LjgzNywwLDAsMCwuMjM0LjU3My43Ny43NywwLDAsMCwuNi4yNjFoMy4zMzRhLjc3Mi43NzIsMCwwLDAsLjYtLjI2MS44MzcuODM3LDAsMCwwLC4yMzQtLjU3M0EuNzM3LjczNywwLDAsMCwyNC4xMTUsMTUuNVoiLz48cGF0aCBjbGFzcz0iY2xzLTMiIGQ9Ik0zMC43ODEsMTUuNUgyNy40NDhhLjczNi43MzYsMCwwLDAtLjgzMy44MzMuODM3LjgzNywwLDAsMCwuMjM0LjU3My43NjkuNzY5LDAsMCwwLC42LjI2MWgzLjMzM2EuNzY5Ljc2OSwwLDAsMCwuNi0uMjYxLjgzOC44MzgsMCwwLDAsLjIzNS0uNTczQS43MzcuNzM3LDAsMCwwLDMwLjc4MSwxNS41WiIvPjxwYXRoIGNsYXNzPSJjbHMtMyIgZD0iTTM3LjUsMTUuNUgzNC4xNjdhLjczNi43MzYsMCwwLDAtLjgzNC44MzMuODM0LjgzNCwwLDAsMCwuMjM1LjU3My43NjcuNzY3LDAsMCwwLC42LjI2MUgzNy41YS43Ny43NywwLDAsMCwuNi0uMjYxLjgzNy44MzcsMCwwLDAsLjIzNC0uNTczQS43MzcuNzM3LDAsMCwwLDM3LjUsMTUuNVoiLz48L3N2Zz4=;" vertex="1" parent="1">
          <mxGeometry x="210" y="310" width="48" height="48" as="geometry" />
        </mxCell>
        <mxCell id="e8w4IlwRmWe2HFXXbtW--48" style="edgeStyle=orthogonalEdgeStyle;rounded=0;orthogonalLoop=1;jettySize=auto;html=1;exitX=1;exitY=0.5;exitDx=0;exitDy=0;entryX=0;entryY=0.5;entryDx=0;entryDy=0;" edge="1" parent="1" source="e8w4IlwRmWe2HFXXbtW--9" target="e8w4IlwRmWe2HFXXbtW--12">
          <mxGeometry relative="1" as="geometry" />
        </mxCell>
        <mxCell id="e8w4IlwRmWe2HFXXbtW--9" value="Replication&#xa;Flow" style="shape=image;verticalLabelPosition=bottom;verticalAlign=top;imageAspect=0;aspect=fixed;image=data:image/svg+xml,PHN2ZyB4bWxucz0iaHR0cDovL3d3dy53My5vcmcvMjAwMC9zdmciIGlkPSJwcm9jZXNzLWZsZXhpYmlsaXR5LXNlcnZpY2UiIHZpZXdCb3g9IjQuMDAwMDAxOTA3MzQ4NjMzIDMuOTk5OTk5MDQ2MzI1NjgzNiA0OCA0Ny45OTk5OTYxODUzMDI3MzQiIHdpZHRoPSI0OCIgaGVpZ2h0PSI0Ny45OTk5OTYxODUzMDI3MzQiPjxkZWZzPjxzdHlsZT4uY2xzLTF7ZmlsbDojMDc0ZDkyO30uY2xzLTJ7ZmlsbDojMDUzYjcwO30uY2xzLTN7ZmlsbDojMGE2ZWQxO308L3N0eWxlPjwvZGVmcz48cGF0aCBjbGFzcz0iY2xzLTEiIGQ9Ik0yOCw2QTIyLDIyLDAsMSwxLDYsMjgsMjIuMDI1LDIyLjAyNSwwLDAsMSwyOCw2bTAtMkEyNCwyNCwwLDEsMCw1MiwyOCwyNCwyNCwwLDAsMCwyOCw0WiIvPjxwYXRoIGNsYXNzPSJjbHMtMiIgZD0iTTMxLjQ3NCwzNC4zMTFsLTMuNDUtNC40YS44MzYuODM2LDAsMSwwLTEuMywxLjA1czIuNTUsMy4yNSwyLjYsMy4zNWEuNy43LDAsMCwxLDAsLjk1Yy0uMS4xLTIuNiwzLjM1LTIuNiwzLjM1YS44MDcuODA3LDAsMCwwLC4wNSwxLjIuODM0LjgzNCwwLDAsMCwxLjItLjE1bDMuNDUtNC4zNUEuODMuODMsMCwwLDAsMzEuNDc0LDM0LjMxMVoiLz48cGF0aCBjbGFzcz0iY2xzLTIiIGQ9Ik0zNS40MjQsMzQuMzExbC0zLjQ1LTQuNGEuODM2LjgzNiwwLDEsMC0xLjMsMS4wNXMyLjU1LDMuMjUsMi42LDMuMzVhLjcuNywwLDAsMSwwLC45NWMtLjEuMS0yLjYsMy4zNS0yLjYsMy4zNWEuNzczLjc3MywwLDAsMCwuMSwxLjIuODMxLjgzMSwwLDAsMCwxLjItLjE1bDMuNDUtNC4zNUEuNzYuNzYsMCwwLDAsMzUuNDI0LDM0LjMxMVoiLz48cGF0aCBjbGFzcz0iY2xzLTIiIGQ9Ik0zNi4wMjQsMjkuOTExYS44MzYuODM2LDAsMSwwLTEuMywxLjA1czIuNTUsMy4yNSwyLjYsMy4zNWEuNy43LDAsMCwxLDAsLjk1Yy0uMS4xLTIuNiwzLjM1LTIuNiwzLjM1YS43ODkuNzg5LDAsMCwwLC4wNSwxLjE1Ljg2OS44NjksMCwwLDAsMS4yLS4xbDMuNDUtNC4zNWEuOTk0Ljk5NCwwLDAsMCwwLTEuMDVaIi8+PHBhdGggY2xhc3M9ImNscy0zIiBkPSJNMzguNSwyNUgzNy4yNWE4LjQyOCw4LjQyOCwwLDAsMC0uNi0xLjRsLjktLjlBMS40MzksMS40MzksMCwwLDAsMzgsMjEuNjVhMS4zNjIsMS4zNjIsMCwwLDAtLjQ1LTEuMDVsLTIuMS0yLjFhMS41NDMsMS41NDMsMCwwLDAtMi4xLDBsLS45LjlBNy4zODEsNy4zODEsMCwwLDAsMzEsMTguOFYxNy41QTEuNSwxLjUsMCwwLDAsMjkuNSwxNmgtM0ExLjUsMS41LDAsMCwwLDI1LDE3LjV2MS4yYTExLjIsMTEuMiwwLDAsMC0xLjQ1LjZsLS44NS0uODVhMS41NDMsMS41NDMsMCwwLDAtMi4xLDBsLTIuMSwyLjFhMS40MTgsMS40MTgsMCwwLDAtLjUsMS4xLDEuNDM5LDEuNDM5LDAsMCwwLC40NSwxLjA1bC44NS44NUE3LjM4MSw3LjM4MSwwLDAsMCwxOC43LDI1SDE3LjVBMS41LDEuNSwwLDAsMCwxNiwyNi41djNBMS40NzMsMS40NzMsMCwwLDAsMTcuNSwzMWgxLjJhOC45LDguOSwwLDAsMCwuNiwxLjQ1bC0uODUuODVBMS41NTEsMS41NTEsMCwwLDAsMTgsMzQuNGExLjQzOSwxLjQzOSwwLDAsMCwuNDUsMS4wNWwyLjEsMi4xYTEuMzkxLDEuMzkxLDAsMCwwLDEuMDUuNCwxLjYxNCwxLjYxNCwwLDAsMCwxLjA1LS40bC44NS0uODVjLjIuMS40NS4yLjcuM2wuMi4xLjg1LTEuMjVMMjUsMzUuN2EzLjQ0NywzLjQ0NywwLDAsMS0uNzUtLjM1bC0uOTUtLjVMMjEuNjUsMzYuNSwxOS41LDM0LjM1bDEuNjUtMS42NS0uNS0uOTVhNi4xMTcsNi4xMTcsMCwwLDEtLjUtMS4yTDE5LjgsMjkuNUgxNy41di0zaDIuM2wuMzUtMS4wNWExMy4wMjEsMTMuMDIxLDAsMCwxLC41LTEuMjVsLjUtLjk1LTEuNjUtMS42LDIuMTUtMi4xNSwxLjY1LDEuNjUuOTUtLjVhNi4xMTcsNi4xMTcsMCwwLDEsMS4yLS41bDEuMDUtLjM1VjE3LjVoM3YyLjNsMS4wNS4zNWExMi4yMTMsMTIuMjEzLDAsMCwxLDEuMi41bC45NS41LDEuNjUtMS42NSwyLjE1LDIuMTVMMzQuODUsMjMuM2wuNS45NWExMi4yMTMsMTIuMjEzLDAsMCwxLC41LDEuMmwuMzUsMS4wNWgyLjN2MS4xSDQwVjI2LjVBMS41MzgsMS41MzgsMCwwLDAsMzguNSwyNVoiLz48cGF0aCBjbGFzcz0iY2xzLTMiIGQ9Ik0yOCwyMy42YTQuNDYsNC40NiwwLDAsMC00LjQ1LDQuNDUsNC4wOTMsNC4wOTMsMCwwLDAsLjQ1LDEuOWwxLjItMS4wNWEyLjMzNiwyLjMzNiwwLDAsMS0uMTUtLjg1QTIuOTU1LDIuOTU1LDAsMCwxLDI4LDI1LjFhMi45MjQsMi45MjQsMCwwLDEsMi45LDIuNmgxLjVBNC40Miw0LjQyLDAsMCwwLDI4LDIzLjZaIi8+PC9zdmc+;" vertex="1" parent="1">
          <mxGeometry x="290" y="310" width="48" height="48" as="geometry" />
        </mxCell>
        <mxCell id="e8w4IlwRmWe2HFXXbtW--13" value="Zookeeper" style="shape=image;verticalLabelPosition=bottom;labelBackgroundColor=default;verticalAlign=top;aspect=fixed;imageAspect=0;image=https://www.cloudkarafka.com/img/blog/Zookeeper_image_cloudkarafka.png;clipPath=inset(15.33% 11% 17.34% 10%);" vertex="1" parent="1">
          <mxGeometry x="495.37" y="280" width="70.75" height="40" as="geometry" />
        </mxCell>
        <mxCell id="e8w4IlwRmWe2HFXXbtW--14" value="" style="outlineConnect=0;dashed=0;verticalLabelPosition=bottom;verticalAlign=top;align=center;html=1;shape=mxgraph.aws3.ec2;fillColor=#F58534;gradientColor=none;fontSize=12;aspect=fixed;" vertex="1" parent="1">
          <mxGeometry x="460" y="220" width="35.37" height="43" as="geometry" />
        </mxCell>
        <mxCell id="e8w4IlwRmWe2HFXXbtW--46" value="&lt;span style=&quot;white-space: pre;&quot;&gt;&#x9;&lt;/span&gt;Kafka" style="rounded=0;whiteSpace=wrap;html=1;dashed=1;dashPattern=8 8;verticalAlign=top;align=left;" vertex="1" parent="1">
          <mxGeometry x="590" y="300" width="160" height="110" as="geometry" />
        </mxCell>
        <mxCell id="e8w4IlwRmWe2HFXXbtW--12" value="Topic" style="shape=image;verticalLabelPosition=bottom;verticalAlign=top;imageAspect=0;aspect=fixed;image=data:image/svg+xml,PHN2ZyB4bWxucz0iaHR0cDovL3d3dy53My5vcmcvMjAwMC9zdmciIGZpbGw9Im5vbmUiIHZpZXdCb3g9IjAgMCA0OCA0OCIgaGVpZ2h0PSI0OCIgd2lkdGg9IjQ4Ij4mI3hhOzxwYXRoIGZpbGw9IiMwNDA1MzEiIGQ9Ik0zIDlWMzlINDVWOUgzWk0yIDZDMC44OTU0MzEgNiAwIDYuODk1NDMgMCA4VjQwQzAgNDEuMTA0NiAwLjg5NTQzMiA0MiAyIDQySDQ2QzQ3LjEwNDYgNDIgNDggNDEuMTA0NiA0OCA0MFY4QzQ4IDYuODk1NDMgNDcuMTA0NiA2IDQ2IDZIMloiIGNsaXAtcnVsZT0iZXZlbm9kZCIgZmlsbC1ydWxlPSJldmVub2RkIi8+JiN4YTs8cmVjdCBmaWxsPSJ1cmwoI3BhaW50MF9saW5lYXIpIiB0cmFuc2Zvcm09Im1hdHJpeCgxIC04Ljc0MjI4ZS0wOCAtOC43NDIyOGUtMDggLTEgMjcgMzIpIiBoZWlnaHQ9IjgiIHdpZHRoPSI4Ii8+JiN4YTs8cGF0aCBmaWxsPSIjMDQwNTMxIiBkPSJNMTYgMTQuNUMxNi44Mjg0IDE0LjUgMTcuNSAxNS4xNzE2IDE3LjUgMTZMMTcuNSA0MEMxNy41IDQwLjgyODQgMTYuODI4NCA0MS41IDE2IDQxLjVDMTUuMTcxNiA0MS41IDE0LjUgNDAuODI4NCAxNC41IDQwTDE0LjUgMTZDMTQuNSAxNS4xNzE2IDE1LjE3MTYgMTQuNSAxNiAxNC41WiIgY2xpcC1ydWxlPSJldmVub2RkIiBmaWxsLXJ1bGU9ImV2ZW5vZGQiLz4mI3hhOzxwYXRoIGZpbGw9IiMwNDA1MzEiIGQ9Ik00Ny41IDE2QzQ3LjUgMTYuODI4NCA0Ni44Mjg0IDE3LjUgNDYgMTcuNUwyIDE3LjVDMS4xNzE1NyAxNy41IDAuNDk5OTk2IDE2LjgyODQgMC40OTk5OTYgMTZDMC40OTk5OTYgMTUuMTcxNiAxLjE3MTU3IDE0LjUgMiAxNC41TDQ2IDE0LjVDNDYuODI4NCAxNC41IDQ3LjUgMTUuMTcxNiA0Ny41IDE2WiIgY2xpcC1ydWxlPSJldmVub2RkIiBmaWxsLXJ1bGU9ImV2ZW5vZGQiLz4mI3hhOzxkZWZzPiYjeGE7PGxpbmVhckdyYWRpZW50IGdyYWRpZW50VW5pdHM9InVzZXJTcGFjZU9uVXNlIiB5Mj0iNS42MzQwMWUtMDYiIHgyPSIwIiB5MT0iNS41NDcwOGUtMDYiIHgxPSI4IiBpZD0icGFpbnQwX2xpbmVhciI+JiN4YTs8c3RvcCBzdG9wLWNvbG9yPSIjMzhDQ0VEIi8+JiN4YTs8c3RvcCBzdG9wLW9wYWNpdHk9IjAuNCIgc3RvcC1jb2xvcj0iIzM4Q0NFRCIgb2Zmc2V0PSIxIi8+JiN4YTs8L2xpbmVhckdyYWRpZW50PiYjeGE7PC9kZWZzPiYjeGE7PC9zdmc+" vertex="1" parent="1">
          <mxGeometry x="606.27" y="330" width="48" height="48" as="geometry" />
        </mxCell>
        <mxCell id="e8w4IlwRmWe2HFXXbtW--50" value="" style="shape=image;verticalLabelPosition=bottom;verticalAlign=top;imageAspect=0;aspect=fixed;image=data:image/svg+xml,PHN2ZyB4bWxucz0iaHR0cDovL3d3dy53My5vcmcvMjAwMC9zdmciIGZpbGw9Im5vbmUiIHZpZXdCb3g9IjAgMCA0OCA0OCIgaGVpZ2h0PSI0OCIgd2lkdGg9IjQ4Ij4mI3hhOzxwYXRoIGZpbGw9IiMwNDA1MzEiIGQ9Ik0yNyA4QzI3IDkuMTA0NTcgMjYuMTA0NiAxMCAyNSAxMEMyMy44OTU0IDEwIDIzIDkuMTA0NTcgMjMgOEMyMyA2Ljg5NTQzIDIzLjg5NTQgNiAyNSA2QzI2LjEwNDYgNiAyNyA2Ljg5NTQzIDI3IDhaTTI2LjQ4MzQgMTIuNzc2M0MyOC41MjA1IDEyLjE0NDMgMzAgMTAuMjQ0OSAzMCA4QzMwIDUuMjM4NTggMjcuNzYxNCAzIDI1IDNDMjIuMjM4NiAzIDIwIDUuMjM4NTggMjAgOEMyMCAxMC4yNDQ5IDIxLjQ3OTUgMTIuMTQ0MyAyMy41MTY2IDEyLjc3NjNDMjMuNTA1NyAxMi44NDkzIDIzLjUgMTIuOTI0IDIzLjUgMTNWMTYuNjVDMjAuMDc2NiAxNy4zNDQ5IDE3LjUgMjAuMzcxNiAxNy41IDI0QzE3LjUgMjcuNjI4NCAyMC4wNzY2IDMwLjY1NTEgMjMuNSAzMS4zNVYzNUMyMy41IDM1LjA3NiAyMy41MDU3IDM1LjE1MDcgMjMuNTE2NiAzNS4yMjM3QzIxLjQ3OTUgMzUuODU1NyAyMCAzNy43NTUxIDIwIDQwQzIwIDQyLjc2MTQgMjIuMjM4NiA0NSAyNSA0NUMyNy43NjE0IDQ1IDMwIDQyLjc2MTQgMzAgNDBDMzAgMzcuNzU1MSAyOC41MjA1IDM1Ljg1NTcgMjYuNDgzNCAzNS4yMjM3QzI2LjQ5NDMgMzUuMTUwNyAyNi41IDM1LjA3NiAyNi41IDM1VjMxLjM1QzI4LjIxOTMgMzEuMDAxIDI5LjcyNSAzMC4wNjM5IDMwLjc5OCAyOC43NTc4TDM1LjE5IDMxLjQ2NjRDMzUuMTAwNiAzMi4xMTY3IDM1LjEzODYgMzIuNzk1NCAzNS4zMjMzIDMzLjQ2ODRDMzYuMDU0MiAzNi4xMzE0IDM4LjgwNTQgMzcuNjk3NyA0MS40NjgzIDM2Ljk2NjhDNDQuMTMxMyAzNi4yMzYgNDUuNjk3NiAzMy40ODQ4IDQ0Ljk2NjcgMzAuODIxOEM0NC4yMzU5IDI4LjE1ODkgNDEuNDg0NyAyNi41OTI2IDM4LjgyMTcgMjcuMzIzNEMzNy44OTEzIDI3LjU3ODggMzcuMDk0OCAyOC4wODA3IDM2LjQ4MzMgMjguNzM5NEwzMi4yMDIzIDI2LjA5OTFDMzIuMzk2MSAyNS40MzMgMzIuNSAyNC43Mjg3IDMyLjUgMjRDMzIuNSAyMy4zMTg2IDMyLjQwOTEgMjIuNjU4NCAzMi4yMzg4IDIyLjAzMDhMMzYuNTc1OCAxOS42NDhDMzcuMTc3NCAyMC4yNTU4IDM3Ljk0MyAyMC43MTczIDM4LjgyODQgMjAuOTU1NUM0MS40OTUgMjEuNjcyOCA0NC4yMzgyIDIwLjA5MjUgNDQuOTU1NSAxNy40MjU5QzQ1LjY3MjggMTQuNzU5MiA0NC4wOTI1IDEyLjAxNiA0MS40MjU5IDExLjI5ODdDMzguNzU5MiAxMC41ODE1IDM2LjAxNiAxMi4xNjE3IDM1LjI5ODggMTQuODI4NEMzNS4xMDM0IDE1LjU1NDQgMzUuMDc4NSAxNi4yODYyIDM1LjE5OTQgMTYuOTgxMkwzMC44ODU5IDE5LjM1MTJDMjkuODA3OSAxNy45ODgzIDI4LjI2NjcgMTcuMDA4NyAyNi41IDE2LjY1VjEzQzI2LjUgMTIuOTI0IDI2LjQ5NDMgMTIuODQ5MyAyNi40ODM0IDEyLjc3NjNaTTI1IDI4LjVDMjcuNDg1MyAyOC41IDI5LjUgMjYuNDg1MyAyOS41IDI0QzI5LjUgMjEuNTE0NyAyNy40ODUzIDE5LjUgMjUgMTkuNUMyMi41MTQ3IDE5LjUgMjAuNSAyMS41MTQ3IDIwLjUgMjRDMjAuNSAyNi40ODUzIDIyLjUxNDcgMjguNSAyNSAyOC41Wk0yNSA0MkMyNi4xMDQ2IDQyIDI3IDQxLjEwNDYgMjcgNDBDMjcgMzguODk1NCAyNi4xMDQ2IDM4IDI1IDM4QzIzLjg5NTQgMzggMjMgMzguODk1NCAyMyA0MEMyMyA0MS4xMDQ2IDIzLjg5NTQgNDIgMjUgNDJaTTQwLjY0NjYgMTQuMTk1OEM0MS43MTMzIDE0LjQ4MjcgNDIuMzQ1NCAxNS41OCA0Mi4wNTg1IDE2LjY0NjZDNDEuNzcxNiAxNy43MTMzIDQwLjY3NDMgMTguMzQ1NCAzOS42MDc2IDE4LjA1ODVDMzguNTQxIDE3Ljc3MTYgMzcuOTA4OSAxNi42NzQzIDM4LjE5NTggMTUuNjA3NkMzOC40ODI3IDE0LjU0MSAzOS41OCAxMy45MDg4IDQwLjY0NjYgMTQuMTk1OFpNNDAuNjc0MyAzNC4wNzM4QzQxLjczOTUgMzMuNzgxNSA0Mi4zNjYgMzIuNjgxIDQyLjA3MzcgMzEuNjE1OEM0MS43ODE0IDMwLjU1MDYgNDAuNjgwOSAyOS45MjQxIDM5LjYxNTcgMzAuMjE2NEMzOC41NTA1IDMwLjUwODggMzcuOTI0IDMxLjYwOTMgMzguMjE2MyAzMi42NzQ0QzM4LjUwODcgMzMuNzM5NiAzOS42MDkyIDM0LjM2NjEgNDAuNjc0MyAzNC4wNzM4WiIgY2xpcC1ydWxlPSJldmVub2RkIiBmaWxsLXJ1bGU9ImV2ZW5vZGQiLz4mI3hhOzxwYXRoIHN0cm9rZS13aWR0aD0iNCIgc3Ryb2tlPSJ1cmwoI3BhaW50MF9saW5lYXIpIiBkPSJNMTggMzVDMTIuNDc3MiAzNSA4IDMwLjA3NTEgOCAyNEM4IDE3LjkyNDkgMTIuNDc3MiAxMyAxOCAxMyIvPiYjeGE7PGRlZnM+JiN4YTs8bGluZWFyR3JhZGllbnQgZ3JhZGllbnRVbml0cz0idXNlclNwYWNlT25Vc2UiIHkyPSIzNSIgeDI9IjE4IiB5MT0iMTMiIHgxPSIxOCIgaWQ9InBhaW50MF9saW5lYXIiPiYjeGE7PHN0b3Agc3RvcC1jb2xvcj0iIzM5Q0RFRSIvPiYjeGE7PHN0b3Agc3RvcC1vcGFjaXR5PSIwLjQiIHN0b3AtY29sb3I9IiMzOENDRUQiIG9mZnNldD0iMSIvPiYjeGE7PC9saW5lYXJHcmFkaWVudD4mI3hhOzwvZGVmcz4mI3hhOzwvc3ZnPg==;" vertex="1" parent="1">
          <mxGeometry x="566.12" y="276" width="48" height="48" as="geometry" />
        </mxCell>
      </root>
    </mxGraphModel>
  </diagram>
</mxfile>
